# AST/ASF file generated using VICON BodyLanguage
# -----------------------------------------------
:version 1.10
:name VICON
:units
  mass 1.0
  length 0.45
  angle deg
:documentation
   .ast/.asf automatically generated from VICON data using
   VICON BodyBuilder and BodyLanguage model FoxedUp or BRILLIANT.MOD
:root
   order TX TY TZ RX RY RZ
   axis XYZ
   position 0 0 0  
   orientation 0 0 0 
:bonedata
  begin
     id 1 
     name lhipjoint
     direction 0.440178 -0.822639 0.359871 
     length 2.53113 
     axis 0 0 0  XYZ
  end
  begin
     id 2 
     name lfemur
     direction 0.34202 -0.939693 0  
     length 7.88132  
     axis 0 0 20  XYZ
    dof rx ry rz
    limits (-160.0 20.0)
           (-70.0 70.0)
           (-60.0 70.0)
  end
  begin
     id 3 
     name ltibia
     direction 0.34202 -0.939693 0   
     length 8.43783   
     axis 0 0 20   XYZ
    dof rx
    limits (-10.0 170.0)
  end
  begin
     id 4 
     name lfoot
     direction 0.0886351 -0.243523 0.965837   
     length 2.63414   
     axis -90 7.62852e-016 20   XYZ
    dof rx rz
    limits (-45.0 90.0)
           (-70.0 20.0)
  end
  begin
     id 5 
     name ltoes
     direction 1.53703e-011 -4.21717e-011 1   
     length 1.31427   
     axis -90 7.62852e-016 20   XYZ
    dof rx
    limits (-90.0 20.0)
  end
  begin
     id 6 
     name rhipjoint
     direction -0.399779 -0.839773 0.367367   
     length 2.47948  
     axis 0 0 0  XYZ 
  end
  begin
     id 7 
     name rfemur
     direction -0.34202 -0.939693 0   
     length 7.74806   
     axis 0 0 -20   XYZ
    dof rx ry rz
    limits (-160.0 20.0)
           (-70.0 70.0)
           (-70.0 60.0)
  end
  begin
     id 8 
     name rtibia
     direction -0.34202 -0.939693 0   
     length 8.74432   
     axis 0 0 -20   XYZ
    dof rx
    limits (-10.0 170.0)
 end
 begin
     id 9 
     name rfoot
     direction -0.108514 -0.298139 0.948334   
     length 2.66102  
     axis -90 -7.62852e-016 -20   XYZ
    dof rx rz
    limits (-45.0 90.0)
           (-20.0 70.0)
  end
  begin
     id 10 
     name rtoes
     direction -1.53392e-011 -4.22077e-011 1   
     length 1.31983   
     axis -90 -7.62852e-016 -20   XYZ
    dof rx
    limits (-90.0 20.0)
  end
  begin
     id 11 
     name lowerback
     direction 0.0113257 0.999866 0.0118602   
     length 2.58694   
     axis 0 0 0   XYZ
    dof rx ry rz
    limits (-20.0 45.0)
           (-30.0 30.0)
           (-30.0 30.0)
  end
  begin
     id 12 
     name upperback
     direction -0.0164747 0.995193 -0.0965375   
     length 2.52368   
     axis 0 0 0   XYZ
    dof rx ry rz
    limits (-20.0 45.0)
           (-30.0 30.0)
           (-30.0 30.0)
  end
  begin
     id 13 
     name thorax
     direction -0.0194301 0.99433 -0.104552   
     length 2.56099   
     axis 0 0 0   XYZ
    dof rx ry rz
    limits (-20.0 45.0)
           (-30.0 30.0)
           (-30.0 30.0)
  end
  begin
     id 14 
     name lowerneck
     direction 0.0148543 0.995587 -0.092657   
     length 1.71582   
     axis 0 0 0   XYZ
    dof rx ry rz
    limits (-20.0 45.0)
           (-30.0 30.0)
           (-30.0 30.0)
  end
  begin
     id 15 
     name upperneck
     direction -0.0135467 0.993656 -0.111639   
     length 1.68937   
     axis 0 0 0   XYZ
    dof rx ry rz
    limits (-20.0 45.0)
           (-30.0 30.0)
           (-30.0 30.0)
  end
  begin
     id 16
     name head
     direction -0.00615349 0.999547 -0.029448  
     length 1.7462  
     axis 0 0 0   XYZ
    dof rx ry rz
    limits (-20.0 45.0)
           (-30.0 30.0)
           (-30.0 30.0)
  end
  begin
     id 17 
     name lclavicle
     direction 0.988267 0.149885 0.0293713  
     length 4.47222  
     axis 0 0 0   XYZ
    dof ry rz
    limits (-20.0 10.0)
           (0.0 20.0)
  end
  begin
     id 18 
     name lhumerus
     direction 1 -4.48986e-011 -1.14833e-027   
     length 5.37148   
     axis 180 -30 -90   XYZ
    dof rx ry rz
    limits (-60.0 90.0)
           (-90.0 90.0)
           (-90.0 90.0)
  end
  begin
     id 19
     name lradius
     direction 0.999998 0.00170963 -0.000987055   
     length 3.94212   
     axis 180 -30 -90   XYZ
    dof rx
    limits (-10.0 170.0)
  end
  begin
     id 20
     name lwrist
     direction 0.999998 7.53149e-005 -0.00194706   
     length 1.97106   
     axis 4.65056e-015 90 90   XYZ
    dof ry
    limits (-180.0 0.0)
 end
  begin
     id 21 
     name lhand
     direction 1 -4.48973e-011 -1.31746e-026   
     length 1.17917   
     axis 8.4065e-015 90 90   XYZ
    dof rx rz
    limits (-90.0 90.0)
           (-45.0 45.0)
  end
  begin
     id 22 
     name lfingers
     direction 1 -4.49107e-011 -2.63492e-026   
     length 0.950679   
     axis 1.6813e-014 90 90   XYZ
    dof rx
    limits (0.0 90.0)
  end
  begin
     id 23
     name lthumb
     direction 0.707107 -6.35048e-011 0.707107   
     length 1.36499   
     axis -90 45 2.85299e-015   XYZ
    dof rx rz
    limits (-45.0 45.0)
           (-45.0 45.0)
  end
  begin
     id 24 
     name rclavicle
     direction -0.996699 0.0642895 -0.0495725   
     length 4.62611  
     axis 0 0 0   XYZ 
    dof ry rz
    limits (-10.0 20.0)
           (-20.0 0.0)
  end
  begin
     id 25 
     name rhumerus
     direction -1 -4.48919e-011 -2.41059e-027  
     length 5.4981   
     axis 180 30 90   XYZ
    dof rx ry rz
    limits (-90.0 60.0)
           (-90.0 90.0)
           (-90.0 90.0)
  end
  begin
     id 26 
     name rradius
     direction -0.999999 0.00118101 -0.000681858   
     length 3.48381   
     axis 180 30 90   XYZ
    dof rx
    limits (-10.0 170.0)
  end
  begin
     id 27 
     name rwrist
     direction -0.999999 0.000321823 -0.00132288   
     length 1.7419   
     axis 4.65056e-015 -90 -90   XYZ
    dof ry
    limits (-180.0 0.0)
  end
  begin
     id 28
     name rhand
     direction -1 -4.49022e-011 -1.31746e-026   
     length 1.34932   
     axis 8.4065e-015 -90 -90   XYZ
    dof rx rz
    limits (-90.0 90.0)
           (-45.0 45.0)
  end
  begin
     id 29
     name rfingers
     direction -1 -4.49178e-011 -2.63492e-026   
     length 1.08785   
     axis 1.6813e-014 -90 -90   XYZ
    dof rx
    limits (0.0 90.0)
  end
  begin
     id 30
     name rthumb
     direction -0.707107 -6.34713e-011 0.707107   
     length 1.56195   
     axis -90 -45 -2.85299e-015   XYZ
    dof rx rz
    limits (-45.0 45.0)
           (-45.0 45.0)
  end
:hierarchy
  begin
    root lhipjoint rhipjoint lowerback
    lhipjoint lfemur
    lfemur ltibia
    ltibia lfoot
    lfoot ltoes
    rhipjoint rfemur
    rfemur rtibia
    rtibia rfoot
    rfoot rtoes
    lowerback upperback
    upperback thorax
    thorax lowerneck lclavicle rclavicle
    lowerneck upperneck
    upperneck head
    lclavicle lhumerus
    lhumerus lradius
    lradius lwrist
    lwrist lhand lthumb
    lhand lfingers
    rclavicle rhumerus
    rhumerus rradius
    rradius rwrist
    rwrist rhand rthumb
    rhand rfingers
  end

#!OML:ASF X:\für Bonn\!DataBase\2005_08_10_Bjorn_Final\c3d\bjorn.ASF
:FULLY-SPECIFIED
:DEGREES
16
root -12.4586 19.1561 0.682321 782.401 85.5506 69.2588
lowerback -0.0664805 -0.61284 6.87911
upperback 8.7691 -1.09231 3.74517
thorax 9.28525 -0.0200756 0.0855868
lowerneck 5.73636 -0.202687 2.51895
upperneck 23.5644 3.35148 -12.0793
head 6.39738 1.58654 -4.18952
rclavicle 1.94809e-014 6.04305e-014
rhumerus -23.4802 -11.4921 -75.4169
rradius 40.9111
rwrist 0.421142
rhand -11.7373 13.4297
rfingers 7.12502
rthumb 14.3102 -16.0571
lclavicle 1.94809e-014 6.04305e-014
lhumerus -31.8965 -8.23629 71.5125
lradius 38.9274
lwrist -17.6617
lhand -27.9153 -14.0622
lfingers 7.12502
lthumb -1.30415 15.9136
rfemur -4.75195 2.39497 14.9988
rtibia 32.5594
rfoot -18.7659 6.52677
rtoes -9.70251
lfemur -39.7433 9.85375 -19.2733
ltibia 80.7374
lfoot -8.10208 -3.87601
ltoes -25.5324
17
root -12.4137 19.1343 0.684901 780.766 85.4778 67.7254
lowerback -0.0280661 -0.637908 6.88444
upperback 8.83831 -1.12422 3.77589
thorax 9.3392 -0.0321867 0.115105
lowerneck 5.80791 -0.153745 2.57017
upperneck 23.4482 3.41822 -12.1759
head 6.3538 1.6207 -4.22669
rclavicle -7.95139e-015 -1.43125e-014
rhumerus -23.2364 -11.0833 -75.5141
rradius 41.4821
rwrist 0.291885
rhand -11.7673 13.4318
rfingers 7.12502
rthumb 14.2812 -16.0571
lclavicle -7.95139e-015 -1.43125e-014
lhumerus -31.7324 -8.52353 71.3849
lradius 38.9961
lwrist -17.4517
lhand -27.9974 -14.1138
lfingers 7.12502
lthumb -1.38336 15.8615
rfemur -4.7035 2.41638 14.994
rtibia 32.9396
rfoot -19.0672 6.61228
rtoes -10.2916
lfemur -40.187 9.89239 -19.326
ltibia 79.9461
lfoot -8.36849 -3.42215
ltoes -26.0327
18
root -12.3696 19.1123 0.687089 779.297 85.3892 66.3468
lowerback 0.0121325 -0.677754 6.86835
upperback 8.91155 -1.17499 3.81006
thorax 9.39589 -0.0551337 0.15879
lowerneck 5.87381 -0.085314 2.57748
upperneck 23.3036 3.50419 -12.261
head 6.30352 1.66097 -4.25108
rclavicle -3.18055e-015 -3.81667e-014
rhumerus -22.9678 -10.5714 -75.5972
rradius 42.0766
rwrist 0.00697803
rhand -11.7236 13.3542
rfingers 7.12502
rthumb 14.3233 -16.1317
lclavicle -3.18055e-015 -3.81667e-014
lhumerus -31.5364 -8.63341 71.2539
lradius 39.044
lwrist -17.3662
lhand -28.1153 -14.1142
lfingers 7.12502
lthumb -1.49731 15.8603
rfemur -4.67696 2.40904 14.9644
rtibia 33.3266
rfoot -19.376 6.74544
rtoes -11.0274
lfemur -40.6032 9.90952 -19.3802
ltibia 79.1069
lfoot -8.54577 -3.01292
ltoes -26.2691
19
root -12.3252 19.0889 0.689301 777.904 85.2973 65.0532
lowerback 0.0934545 -0.720451 6.84438
upperback 8.95764 -1.22367 3.83119
thorax 9.39742 -0.0794791 0.192298
lowerneck 6.01704 -0.0206361 2.60807
upperneck 23.15 3.58208 -12.3309
head 6.23676 1.70397 -4.27528
rclavicle -9.93923e-015 -1.11319e-014
rhumerus -22.779 -10.0668 -75.6905
rradius 42.6687
rwrist -0.19157
rhand -11.7099 13.2999
rfingers 7.12502
rthumb 14.3365 -16.1851
lclavicle -9.93923e-015 -1.11319e-014
lhumerus -31.4197 -8.77501 71.0927
lradius 39.1498
lwrist -17.3396
lhand -28.2334 -14.0977
lfingers 7.12502
lthumb -1.61138 15.876
rfemur -4.63711 2.39114 14.9243
rtibia 33.725
rfoot -19.6868 6.92886
rtoes -11.6708
lfemur -40.9742 9.9247 -19.4154
ltibia 78.2287
lfoot -8.73016 -2.63116
ltoes -26.489
20
root -12.2813 19.0659 0.691636 776.226 85.2377 63.4875
lowerback 0.18133 -0.756272 6.86817
upperback 9.02207 -1.26465 3.85556
thorax 9.41611 -0.0950682 0.204236
lowerneck 6.10128 0.036829 2.67413
upperneck 23.0185 3.65468 -12.4168
head 6.18708 1.74329 -4.31135
rclavicle 3.18055e-015 4.92986e-014
rhumerus -22.5631 -9.61761 -75.7819
rradius 43.2492
rwrist -0.419207
rhand -11.6329 13.1775
rfingers 7.12502
rthumb 14.4107 -16.3022
lclavicle 3.18055e-015 4.92986e-014
lhumerus -31.2503 -8.94095 70.9322
lradius 39.2297
lwrist -17.2437
lhand -28.3648 -14.1414
lfingers 7.12502
lthumb -1.73827 15.8313
rfemur -4.59793 2.36849 14.9382
rtibia 34.1388
rfoot -20.0065 7.04014
rtoes -12.5787
lfemur -41.287 9.93493 -19.377
ltibia 77.3114
lfoot -8.86778 -2.33579
ltoes -26.4778
21
root -12.2372 19.0397 0.693775 774.465 85.1918 61.8376
lowerback 0.270036 -0.806399 6.8974
upperback 9.08399 -1.32539 3.89449
thorax 9.43103 -0.120519 0.227275
lowerneck 6.21471 0.106595 2.6855
upperneck 22.8699 3.73911 -12.4859
head 6.12783 1.78662 -4.3318
rclavicle -9.14409e-015 -1.01778e-013
rhumerus -22.3401 -9.12071 -75.8541
rradius 43.814
rwrist -0.679809
rhand -11.5788 12.9778
rfingers 7.12502
rthumb 14.4628 -16.4982
lclavicle -9.14409e-015 -1.01778e-013
lhumerus -31.0985 -9.04651 70.7625
lradius 39.3104
lwrist -17.1788
lhand -28.4871 -14.155
lfingers 7.12502
lthumb -1.85639 15.8166
rfemur -4.56634 2.3507 14.974
rtibia 34.5677
rfoot -20.3391 7.18505
rtoes -13.3686
lfemur -41.5516 9.93293 -19.3016
ltibia 76.3736
lfoot -8.99425 -2.07615
ltoes -26.2759
22
root -12.1931 19.0118 0.695855 772.561 85.1564 60.0456
lowerback 0.364384 -0.847679 6.96155
upperback 9.15174 -1.37451 3.92116
thorax 9.44925 -0.136619 0.219186
lowerneck 6.3196 0.175704 2.72413
upperneck 22.7158 3.81679 -12.5367
head 6.06782 1.82918 -4.35116
rclavicle 1.63003e-014 -9.54166e-015
rhumerus -22.1286 -8.67433 -75.939
rradius 44.3704
rwrist -0.940478
rhand -11.5346 12.7214
rfingers 7.12502
rthumb 14.5055 -16.7515
lclavicle 1.63003e-014 -9.54166e-015
lhumerus -30.946 -9.20523 70.5792
lradius 39.3879
lwrist -17.1548
lhand -28.6081 -14.1404
lfingers 7.12502
lthumb -1.97319 15.8302
rfemur -4.55097 2.32722 15.0238
rtibia 35.0286
rfoot -20.693 7.37392
rtoes -13.8921
lfemur -41.7746 9.93593 -19.1819
ltibia 75.4191
lfoot -9.04553 -1.84071
ltoes -25.7441
23
root -12.1493 18.9816 0.698069 770.683 85.1178 58.2905
lowerback 0.454616 -0.899232 7.02187
upperback 9.24163 -1.43779 3.94724
thorax 9.49421 -0.158335 0.212315
lowerneck 6.32951 0.249184 2.77236
upperneck 22.6058 3.9128 -12.6247
head 6.0401 1.87442 -4.38399
rclavicle -6.75868e-015 3.18055e-015
rhumerus -21.8545 -8.25028 -76.0278
rradius 44.8664
rwrist -1.13
rhand -11.4822 12.5387
rfingers 7.12502
rthumb 14.556 -16.9306
lclavicle -6.75868e-015 3.18055e-015
lhumerus -30.786 -9.33793 70.3897
lradius 39.4942
lwrist -17.0617
lhand -28.7542 -14.1399
lfingers 7.12502
lthumb -2.11433 15.8294
rfemur -4.54419 2.32002 15.0851
rtibia 35.5345
rfoot -21.0525 7.50702
rtoes -14.4113
lfemur -41.9394 9.93903 -19.0489
ltibia 74.4593
lfoot -9.0531 -1.65092
ltoes -25.0544
